<mxfile host="Electron" agent="Mozilla/5.0 (Windows NT 10.0; Win64; x64) AppleWebKit/537.36 (KHTML, like Gecko) draw.io/28.0.6 Chrome/138.0.7204.100 Electron/37.2.3 Safari/537.36" version="28.0.6">
  <diagram name="Page-1" id="Fj6WwcMeU3yVgniH5abD">
    <mxGraphModel dx="1426" dy="841" grid="0" gridSize="10" guides="1" tooltips="1" connect="1" arrows="1" fold="1" page="1" pageScale="1" pageWidth="2000" pageHeight="1200" math="0" shadow="0">
      <root>
        <mxCell id="0" />
        <mxCell id="1" parent="0" />
        <mxCell id="kKx9mzJgOBCCkItwEjzd-1" value="" style="rounded=1;whiteSpace=wrap;html=1;strokeColor=default;arcSize=3;" vertex="1" parent="1">
          <mxGeometry x="85" y="117" width="1090" height="585" as="geometry" />
        </mxCell>
        <mxCell id="qVOLXgX9TTcUGiCLLjyE-31" value="" style="rounded=1;whiteSpace=wrap;html=1;fillColor=none;arcSize=4;dashed=1;" parent="1" vertex="1">
          <mxGeometry x="140" y="278" width="620" height="387" as="geometry" />
        </mxCell>
        <mxCell id="qVOLXgX9TTcUGiCLLjyE-33" value="" style="rounded=1;whiteSpace=wrap;html=1;fillColor=none;arcSize=4;dashed=1;" parent="1" vertex="1">
          <mxGeometry x="802" y="276" width="320" height="390" as="geometry" />
        </mxCell>
        <mxCell id="qVOLXgX9TTcUGiCLLjyE-32" value="&lt;b&gt;&lt;font style=&quot;font-size: 18px;&quot;&gt;CRM&lt;/font&gt;&lt;/b&gt;" style="rounded=1;whiteSpace=wrap;html=1;fillColor=#1ba1e2;fontColor=#ffffff;strokeColor=#006EAF;" parent="1" vertex="1">
          <mxGeometry x="385" y="260" width="130" height="40" as="geometry" />
        </mxCell>
        <mxCell id="qVOLXgX9TTcUGiCLLjyE-34" value="&lt;b&gt;&lt;font style=&quot;font-size: 18px;&quot;&gt;CRM&lt;/font&gt;&lt;/b&gt;" style="rounded=1;whiteSpace=wrap;html=1;fillColor=#f0a30a;fontColor=#000000;strokeColor=#BD7000;" parent="1" vertex="1">
          <mxGeometry x="897.01" y="257" width="130" height="40" as="geometry" />
        </mxCell>
        <mxCell id="qVOLXgX9TTcUGiCLLjyE-39" style="edgeStyle=orthogonalEdgeStyle;rounded=0;orthogonalLoop=1;jettySize=auto;html=1;entryX=0.993;entryY=0.232;entryDx=0;entryDy=0;entryPerimeter=0;" parent="1" edge="1">
          <mxGeometry relative="1" as="geometry">
            <mxPoint x="842" y="587.5" as="sourcePoint" />
            <mxPoint x="728.3199999999999" y="554" as="targetPoint" />
            <Array as="points">
              <mxPoint x="786" y="587" />
              <mxPoint x="786" y="554" />
            </Array>
          </mxGeometry>
        </mxCell>
        <mxCell id="qVOLXgX9TTcUGiCLLjyE-20" value="&lt;font style=&quot;font-size: 18px;&quot;&gt;&lt;b style=&quot;&quot;&gt;erp_loc_a101&lt;/b&gt;&lt;/font&gt;" style="swimlane;fontStyle=0;childLayout=stackLayout;horizontal=1;startSize=30;horizontalStack=0;resizeParent=1;resizeParentMax=0;resizeLast=0;collapsible=1;marginBottom=0;whiteSpace=wrap;html=1;rounded=1;fillColor=#f0a30a;fontColor=#000000;strokeColor=none;" parent="1" vertex="1">
          <mxGeometry x="842" y="561" width="240" height="95" as="geometry" />
        </mxCell>
        <mxCell id="qVOLXgX9TTcUGiCLLjyE-21" value="&lt;font style=&quot;font-size: 18px;&quot;&gt;cid&lt;/font&gt;" style="text;strokeColor=none;fillColor=#FFFFFF;align=left;verticalAlign=middle;spacingLeft=4;spacingRight=4;overflow=hidden;points=[[0,0.5],[1,0.5]];portConstraint=eastwest;rotatable=0;whiteSpace=wrap;html=1;fontColor=#000000;" parent="qVOLXgX9TTcUGiCLLjyE-20" vertex="1">
          <mxGeometry y="30" width="240" height="30" as="geometry" />
        </mxCell>
        <mxCell id="wUW7rLOAz4V_OGi6mE-t-7" value="&lt;b&gt;&lt;font style=&quot;color: rgb(0, 0, 0); font-size: 15px;&quot;&gt;CUSTOMER&lt;/font&gt;&lt;/b&gt;" style="rounded=0;whiteSpace=wrap;html=1;fillColor=#bac8d3;strokeColor=none;" parent="qVOLXgX9TTcUGiCLLjyE-20" vertex="1">
          <mxGeometry y="60" width="240" height="35" as="geometry" />
        </mxCell>
        <mxCell id="qVOLXgX9TTcUGiCLLjyE-37" style="edgeStyle=orthogonalEdgeStyle;rounded=0;orthogonalLoop=1;jettySize=auto;html=1;" parent="1" target="qVOLXgX9TTcUGiCLLjyE-6" edge="1">
          <mxGeometry relative="1" as="geometry">
            <Array as="points">
              <mxPoint x="740" y="404" />
              <mxPoint x="740" y="404" />
            </Array>
            <mxPoint x="858" y="404.3" as="sourcePoint" />
            <mxPoint x="747.2" y="400.045" as="targetPoint" />
          </mxGeometry>
        </mxCell>
        <mxCell id="qVOLXgX9TTcUGiCLLjyE-23" value="&lt;font style=&quot;font-size: 18px;&quot;&gt;&lt;b style=&quot;&quot;&gt;erp_px_cat_g1v2&lt;/b&gt;&lt;/font&gt;" style="swimlane;fontStyle=0;childLayout=stackLayout;horizontal=1;startSize=30;horizontalStack=0;resizeParent=1;resizeParentMax=0;resizeLast=0;collapsible=1;marginBottom=0;whiteSpace=wrap;html=1;rounded=1;fillColor=#f0a30a;fontColor=#000000;strokeColor=none;" parent="1" vertex="1">
          <mxGeometry x="842" y="320" width="240" height="95" as="geometry" />
        </mxCell>
        <mxCell id="qVOLXgX9TTcUGiCLLjyE-24" value="&lt;font style=&quot;font-size: 18px;&quot;&gt;id&lt;/font&gt;" style="text;strokeColor=none;fillColor=#FFFFFF;align=left;verticalAlign=middle;spacingLeft=4;spacingRight=4;overflow=hidden;points=[[0,0.5],[1,0.5]];portConstraint=eastwest;rotatable=0;whiteSpace=wrap;html=1;fontColor=#000000;" parent="qVOLXgX9TTcUGiCLLjyE-23" vertex="1">
          <mxGeometry y="30" width="240" height="30" as="geometry" />
        </mxCell>
        <mxCell id="wUW7rLOAz4V_OGi6mE-t-8" value="&lt;font color=&quot;#000000&quot;&gt;&lt;span style=&quot;font-size: 15px;&quot;&gt;&lt;b&gt;PRODUCT&lt;/b&gt;&lt;/span&gt;&lt;/font&gt;" style="rounded=0;whiteSpace=wrap;html=1;fillColor=#b0e3e6;strokeColor=none;" parent="qVOLXgX9TTcUGiCLLjyE-23" vertex="1">
          <mxGeometry y="60" width="240" height="35" as="geometry" />
        </mxCell>
        <mxCell id="qVOLXgX9TTcUGiCLLjyE-38" style="edgeStyle=orthogonalEdgeStyle;rounded=0;orthogonalLoop=1;jettySize=auto;html=1;" parent="1" source="qVOLXgX9TTcUGiCLLjyE-25" target="qVOLXgX9TTcUGiCLLjyE-9" edge="1">
          <mxGeometry relative="1" as="geometry">
            <Array as="points">
              <mxPoint x="786" y="494" />
              <mxPoint x="786" y="554" />
            </Array>
          </mxGeometry>
        </mxCell>
        <mxCell id="qVOLXgX9TTcUGiCLLjyE-25" value="&lt;span style=&quot;font-size: 18px;&quot;&gt;&lt;b&gt;erp_cust_az12&lt;/b&gt;&lt;/span&gt;" style="swimlane;fontStyle=0;childLayout=stackLayout;horizontal=1;startSize=30;horizontalStack=0;resizeParent=1;resizeParentMax=0;resizeLast=0;collapsible=1;marginBottom=0;whiteSpace=wrap;html=1;rounded=1;fillColor=#f0a30a;fontColor=#000000;strokeColor=none;" parent="1" vertex="1">
          <mxGeometry x="842" y="437" width="240" height="95" as="geometry" />
        </mxCell>
        <mxCell id="qVOLXgX9TTcUGiCLLjyE-26" value="&lt;font style=&quot;font-size: 18px;&quot;&gt;cid&lt;/font&gt;" style="text;strokeColor=none;fillColor=#FFFFFF;align=left;verticalAlign=middle;spacingLeft=4;spacingRight=4;overflow=hidden;points=[[0,0.5],[1,0.5]];portConstraint=eastwest;rotatable=0;whiteSpace=wrap;html=1;fontColor=#000000;" parent="qVOLXgX9TTcUGiCLLjyE-25" vertex="1">
          <mxGeometry y="30" width="240" height="30" as="geometry" />
        </mxCell>
        <mxCell id="wUW7rLOAz4V_OGi6mE-t-9" value="&lt;b&gt;&lt;font style=&quot;color: rgb(0, 0, 0); font-size: 15px;&quot;&gt;CUSTOMER&lt;/font&gt;&lt;/b&gt;" style="rounded=0;whiteSpace=wrap;html=1;fillColor=#bac8d3;strokeColor=none;" parent="qVOLXgX9TTcUGiCLLjyE-25" vertex="1">
          <mxGeometry y="60" width="240" height="35" as="geometry" />
        </mxCell>
        <mxCell id="qVOLXgX9TTcUGiCLLjyE-28" value="Location of Customers (Country)" style="rounded=1;whiteSpace=wrap;fillColor=none;fontSize=11;strokeColor=none;" parent="1" vertex="1">
          <mxGeometry x="875.14" y="538" width="173.75" height="25" as="geometry" />
        </mxCell>
        <mxCell id="qVOLXgX9TTcUGiCLLjyE-29" value="Product Categories" style="rounded=1;whiteSpace=wrap;fillColor=none;fontSize=11;strokeColor=none;" parent="1" vertex="1">
          <mxGeometry x="905.14" y="300" width="113.74" height="20" as="geometry" />
        </mxCell>
        <mxCell id="qVOLXgX9TTcUGiCLLjyE-30" value="Extra Customer Information (Birthdate)" style="rounded=1;whiteSpace=wrap;fillColor=none;fontSize=11;strokeColor=none;" parent="1" vertex="1">
          <mxGeometry x="866.06" y="417" width="191.87" height="20" as="geometry" />
        </mxCell>
        <mxCell id="qVOLXgX9TTcUGiCLLjyE-12" style="edgeStyle=orthogonalEdgeStyle;rounded=0;orthogonalLoop=1;jettySize=auto;html=1;" parent="1" source="qVOLXgX9TTcUGiCLLjyE-2" target="qVOLXgX9TTcUGiCLLjyE-6" edge="1">
          <mxGeometry relative="1" as="geometry" />
        </mxCell>
        <mxCell id="qVOLXgX9TTcUGiCLLjyE-13" style="edgeStyle=orthogonalEdgeStyle;rounded=0;orthogonalLoop=1;jettySize=auto;html=1;" parent="1" source="qVOLXgX9TTcUGiCLLjyE-2" target="qVOLXgX9TTcUGiCLLjyE-9" edge="1">
          <mxGeometry relative="1" as="geometry" />
        </mxCell>
        <mxCell id="qVOLXgX9TTcUGiCLLjyE-2" value="&lt;font style=&quot;font-size: 18px;&quot;&gt;&lt;b style=&quot;&quot;&gt;crm_list_details&lt;/b&gt;&lt;/font&gt;" style="swimlane;fontStyle=0;childLayout=stackLayout;horizontal=1;startSize=30;horizontalStack=0;resizeParent=1;resizeParentMax=0;resizeLast=0;collapsible=1;marginBottom=0;whiteSpace=wrap;html=1;rounded=1;fillColor=#1ba1e2;fontColor=#ffffff;strokeColor=none;" parent="1" vertex="1">
          <mxGeometry x="170" y="433" width="240" height="125" as="geometry" />
        </mxCell>
        <mxCell id="qVOLXgX9TTcUGiCLLjyE-3" value="&lt;font style=&quot;font-size: 18px;&quot;&gt;prd_key&lt;/font&gt;" style="text;strokeColor=none;fillColor=#FFFFFF;align=left;verticalAlign=middle;spacingLeft=4;spacingRight=4;overflow=hidden;points=[[0,0.5],[1,0.5]];portConstraint=eastwest;rotatable=0;whiteSpace=wrap;html=1;fontColor=#000000;" parent="qVOLXgX9TTcUGiCLLjyE-2" vertex="1">
          <mxGeometry y="30" width="240" height="30" as="geometry" />
        </mxCell>
        <mxCell id="qVOLXgX9TTcUGiCLLjyE-4" value="&lt;font style=&quot;font-size: 18px;&quot;&gt;cst_id&lt;/font&gt;" style="text;strokeColor=none;fillColor=#FFFFFF;align=left;verticalAlign=middle;spacingLeft=4;spacingRight=4;overflow=hidden;points=[[0,0.5],[1,0.5]];portConstraint=eastwest;rotatable=0;whiteSpace=wrap;html=1;fontColor=#000000;" parent="qVOLXgX9TTcUGiCLLjyE-2" vertex="1">
          <mxGeometry y="60" width="240" height="30" as="geometry" />
        </mxCell>
        <mxCell id="wUW7rLOAz4V_OGi6mE-t-2" value="&lt;b&gt;&lt;font style=&quot;font-size: 15px; color: rgb(0, 0, 0);&quot;&gt;SALES&lt;/font&gt;&lt;/b&gt;" style="rounded=0;whiteSpace=wrap;html=1;fillColor=#fad9d5;strokeColor=none;" parent="qVOLXgX9TTcUGiCLLjyE-2" vertex="1">
          <mxGeometry y="90" width="240" height="35" as="geometry" />
        </mxCell>
        <mxCell id="qVOLXgX9TTcUGiCLLjyE-6" value="&lt;font style=&quot;font-size: 18px;&quot;&gt;&lt;b style=&quot;&quot;&gt;crm_prd_info&lt;/b&gt;&lt;/font&gt;" style="swimlane;fontStyle=0;childLayout=stackLayout;horizontal=1;startSize=30;horizontalStack=0;resizeParent=1;resizeParentMax=0;resizeLast=0;collapsible=1;marginBottom=0;whiteSpace=wrap;html=1;rounded=1;fillColor=#1ba1e2;fontColor=#ffffff;strokeColor=none;" parent="1" vertex="1">
          <mxGeometry x="490" y="373" width="240" height="95" as="geometry" />
        </mxCell>
        <mxCell id="qVOLXgX9TTcUGiCLLjyE-7" value="&lt;font style=&quot;font-size: 18px;&quot;&gt;prd_key&lt;/font&gt;" style="text;strokeColor=none;fillColor=#FFFFFF;align=left;verticalAlign=middle;spacingLeft=4;spacingRight=4;overflow=hidden;points=[[0,0.5],[1,0.5]];portConstraint=eastwest;rotatable=0;whiteSpace=wrap;html=1;fontColor=#000000;" parent="qVOLXgX9TTcUGiCLLjyE-6" vertex="1">
          <mxGeometry y="30" width="240" height="30" as="geometry" />
        </mxCell>
        <mxCell id="wUW7rLOAz4V_OGi6mE-t-6" value="&lt;font style=&quot;font-size: 15px; color: rgb(0, 0, 0);&quot;&gt;PRODUCT&lt;/font&gt;" style="rounded=0;whiteSpace=wrap;html=1;fillColor=#b0e3e6;strokeColor=none;fontStyle=1;" parent="qVOLXgX9TTcUGiCLLjyE-6" vertex="1">
          <mxGeometry y="60" width="240" height="35" as="geometry" />
        </mxCell>
        <mxCell id="qVOLXgX9TTcUGiCLLjyE-9" value="&lt;span style=&quot;font-size: 18px;&quot;&gt;&lt;b&gt;crm_cust_info&lt;/b&gt;&lt;/span&gt;" style="swimlane;fontStyle=0;childLayout=stackLayout;horizontal=1;startSize=30;horizontalStack=0;resizeParent=1;resizeParentMax=0;resizeLast=0;collapsible=1;marginBottom=0;whiteSpace=wrap;html=1;rounded=1;fillColor=#1ba1e2;fontColor=#ffffff;strokeColor=none;" parent="1" vertex="1">
          <mxGeometry x="490" y="524" width="240" height="125" as="geometry" />
        </mxCell>
        <mxCell id="qVOLXgX9TTcUGiCLLjyE-10" value="&lt;font style=&quot;font-size: 18px;&quot;&gt;cst_id&lt;/font&gt;" style="text;strokeColor=none;fillColor=#FFFFFF;align=left;verticalAlign=middle;spacingLeft=4;spacingRight=4;overflow=hidden;points=[[0,0.5],[1,0.5]];portConstraint=eastwest;rotatable=0;whiteSpace=wrap;html=1;fontColor=#000000;" parent="qVOLXgX9TTcUGiCLLjyE-9" vertex="1">
          <mxGeometry y="30" width="240" height="30" as="geometry" />
        </mxCell>
        <mxCell id="qVOLXgX9TTcUGiCLLjyE-11" value="&lt;font style=&quot;font-size: 18px;&quot;&gt;cst_key&lt;/font&gt;" style="text;strokeColor=none;fillColor=#FFFFFF;align=left;verticalAlign=middle;spacingLeft=4;spacingRight=4;overflow=hidden;points=[[0,0.5],[1,0.5]];portConstraint=eastwest;rotatable=0;whiteSpace=wrap;html=1;fontColor=#000000;" parent="qVOLXgX9TTcUGiCLLjyE-9" vertex="1">
          <mxGeometry y="60" width="240" height="30" as="geometry" />
        </mxCell>
        <mxCell id="wUW7rLOAz4V_OGi6mE-t-4" value="&lt;b&gt;&lt;font style=&quot;color: rgb(0, 0, 0); font-size: 15px;&quot;&gt;CUSTOMER&lt;/font&gt;&lt;/b&gt;" style="rounded=0;whiteSpace=wrap;html=1;fillColor=#bac8d3;strokeColor=none;" parent="qVOLXgX9TTcUGiCLLjyE-9" vertex="1">
          <mxGeometry y="90" width="240" height="35" as="geometry" />
        </mxCell>
        <mxCell id="qVOLXgX9TTcUGiCLLjyE-15" value="Transactional Records about Sales &amp; Orders" style="rounded=1;whiteSpace=wrap;fillColor=none;fontSize=11;strokeColor=none;" parent="1" vertex="1">
          <mxGeometry x="206.25" y="393" width="167.5" height="40" as="geometry" />
        </mxCell>
        <mxCell id="qVOLXgX9TTcUGiCLLjyE-16" value="Current &amp; History Product Information" style="rounded=1;whiteSpace=wrap;fillColor=none;fontSize=11;strokeColor=none;" parent="1" vertex="1">
          <mxGeometry x="526.25" y="330" width="167.5" height="40" as="geometry" />
        </mxCell>
        <mxCell id="qVOLXgX9TTcUGiCLLjyE-17" value="Customer Information" style="rounded=1;whiteSpace=wrap;fillColor=none;fontSize=11;strokeColor=none;" parent="1" vertex="1">
          <mxGeometry x="548.13" y="499" width="123.75" height="20" as="geometry" />
        </mxCell>
        <mxCell id="kKx9mzJgOBCCkItwEjzd-2" value="Data Integration" style="text;html=1;align=center;verticalAlign=middle;whiteSpace=wrap;rounded=0;fontStyle=5;fontSize=37;" vertex="1" parent="1">
          <mxGeometry x="482.25" y="153" width="295.5" height="30" as="geometry" />
        </mxCell>
        <mxCell id="kKx9mzJgOBCCkItwEjzd-3" value="How Tables are Related" style="text;html=1;align=center;verticalAlign=middle;whiteSpace=wrap;rounded=0;fontStyle=0;fontSize=18;" vertex="1" parent="1">
          <mxGeometry x="513.63" y="189" width="232.75" height="30" as="geometry" />
        </mxCell>
        <mxCell id="kKx9mzJgOBCCkItwEjzd-4" value="&lt;font style=&quot;font-size: 14px;&quot;&gt;Customer Relationship Management&lt;/font&gt;" style="text;html=1;align=center;verticalAlign=middle;whiteSpace=wrap;rounded=0;fontStyle=0;fontSize=18;" vertex="1" parent="1">
          <mxGeometry x="333.62" y="230" width="232.75" height="30" as="geometry" />
        </mxCell>
        <mxCell id="kKx9mzJgOBCCkItwEjzd-5" value="&lt;font style=&quot;font-size: 14px;&quot;&gt;Enterprise Resource Planning&lt;/font&gt;" style="text;html=1;align=center;verticalAlign=middle;whiteSpace=wrap;rounded=0;fontStyle=0;fontSize=18;" vertex="1" parent="1">
          <mxGeometry x="845.64" y="230" width="232.75" height="30" as="geometry" />
        </mxCell>
      </root>
    </mxGraphModel>
  </diagram>
</mxfile>
